<svg version="1.1" id="Layer_1" xmlns="http://www.w3.org/2000/svg" xmlns:xlink="http://www.w3.org/1999/xlink" x="0px" y="0px"
	 width="100%" viewBox="0 0 2048 2048" enable-background="new 0 0 2048 2048" xml:space="preserve">
<path fill="#020202" opacity="1.000000" stroke="none" 
	d="
M1154.000000,2049.000000 
	C769.333313,2049.000000 385.166656,2049.000000 1.000000,2049.000000 
	C1.000000,1366.333374 1.000000,683.666687 1.000000,1.000000 
	C683.666687,1.000000 1366.333374,1.000000 2049.000000,1.000000 
	C2049.000000,683.666687 2049.000000,1366.333374 2049.000000,2049.000000 
	C1750.833374,2049.000000 1452.666626,2049.000000 1154.000000,2049.000000 
M1478.818359,943.090759 
	C1480.084106,943.402466 1481.336426,943.792786 1482.617798,944.014282 
	C1503.209473,947.574829 1523.820190,951.028381 1544.391235,954.703857 
	C1551.595459,955.991028 1558.704346,957.812073 1565.856689,959.389343 
	C1566.150513,958.897705 1566.444336,958.406067 1566.738159,957.914429 
	C1563.581055,955.315918 1560.742554,951.124817 1557.207153,950.417847 
	C1546.663452,948.309509 1535.859619,947.438843 1525.132324,946.327698 
	C1513.100586,945.081299 1501.041504,944.100281 1488.642578,942.781189 
	C1488.147827,942.763306 1487.653198,942.745361 1486.595825,942.037170 
	C1483.727539,941.739441 1480.859253,941.441711 1477.258301,940.818298 
	C1470.699341,940.418335 1464.140381,940.018372 1457.581299,939.618408 
	C1457.555420,940.053650 1457.529541,940.488892 1457.503662,940.924194 
	C1464.350952,941.587891 1471.198120,942.251587 1478.818359,943.090759 
M578.878479,943.089172 
	C590.492310,941.777893 602.106201,940.466675 613.720032,939.155396 
	C613.707703,938.970276 613.695312,938.785095 613.682922,938.599915 
	C601.791565,939.451477 589.900208,940.302979 577.169800,941.159973 
	C571.856323,941.434570 566.506958,941.408691 561.235718,942.037415 
	C541.769531,944.359070 522.369751,947.339722 502.858582,949.130615 
	C495.321533,949.822449 491.089844,953.061829 488.893616,958.188965 
	C518.113159,953.183960 548.041016,948.057617 578.878479,943.089172 
M962.608704,1169.211304 
	C963.129761,1167.986938 963.705444,1166.782715 964.163696,1165.535278 
	C971.846741,1144.622681 979.490662,1123.695557 987.195862,1102.791138 
	C992.065002,1089.580933 1000.616394,1080.041504 1014.937073,1077.496582 
	C1021.898804,1076.259521 1029.242798,1075.659302 1036.234497,1076.419678 
	C1050.973022,1078.022217 1062.074341,1085.666626 1068.365479,1099.419678 
	C1070.849365,1104.849731 1073.138550,1110.396851 1075.089478,1116.038330 
	C1086.248413,1148.308716 1098.727661,1179.958984 1115.892456,1209.642456 
	C1143.074951,1256.649780 1182.194946,1288.054443 1235.593628,1299.411377 
	C1290.065918,1310.996582 1344.228149,1307.913818 1397.338013,1290.851685 
	C1438.095947,1277.757568 1468.703979,1252.639160 1487.786011,1213.753906 
	C1498.467896,1191.986206 1506.648071,1169.384277 1512.993408,1146.078613 
	C1519.241699,1123.129639 1524.767700,1099.980469 1531.249512,1077.100220 
	C1536.246216,1059.462769 1545.185059,1044.430176 1562.308350,1035.485840 
	C1564.611938,1034.282593 1566.870605,1030.652588 1567.014526,1028.029175 
	C1568.061646,1008.949463 1568.455811,989.834961 1569.310791,970.742737 
	C1569.515747,966.165649 1567.394897,964.622986 1563.406616,964.004272 
	C1554.031372,962.549866 1544.716187,960.671265 1535.315552,959.424866 
	C1500.835327,954.852844 1466.415161,949.587952 1431.812256,946.240051 
	C1389.848511,942.179871 1347.716797,941.930298 1305.585938,944.770325 
	C1274.143799,946.889893 1242.765747,949.840393 1212.045166,956.803711 
	C1179.137329,964.262817 1146.585693,973.292480 1113.874756,981.621399 
	C1090.309204,987.621704 1066.665649,993.212097 1042.294556,994.856934 
	C1012.676514,996.855957 983.874939,991.934387 955.396423,984.468323 
	C912.453186,973.210144 869.972778,960.172424 825.908447,953.418518 
	C785.496399,947.224426 744.928589,943.727539 704.071899,943.267517 
	C660.870911,942.781128 617.830017,945.418823 575.055969,951.254395 
	C547.033203,955.077454 519.212708,960.371582 491.272980,964.827393 
	C486.599976,965.572693 484.701752,967.779358 484.813446,972.380005 
	C485.221222,989.175964 485.586609,1005.973633 485.818939,1022.772766 
	C485.906464,1029.097900 488.536133,1033.187866 494.331848,1036.101318 
	C505.657501,1041.794678 514.879639,1050.291748 519.615601,1062.071045 
	C525.487610,1076.676147 530.926514,1091.596069 534.834961,1106.820923 
	C543.194458,1139.384399 551.412659,1171.881836 565.009827,1202.827759 
	C584.428040,1247.021851 616.423279,1277.149414 662.587097,1291.603149 
	C712.107422,1307.107910 762.733521,1310.076660 813.700928,1301.481445 
	C863.047668,1293.159668 902.903809,1268.788452 931.190247,1226.736450 
	C943.301514,1208.731201 953.547058,1189.731934 962.608704,1169.211304 
M1317.326172,791.826782 
	C1319.037842,790.243530 1320.691040,788.591003 1322.470215,787.087891 
	C1337.762695,774.168823 1353.857788,774.748535 1367.685913,789.143372 
	C1373.088379,794.767334 1378.157104,800.827637 1382.622681,807.216980 
	C1408.469849,844.200195 1434.096436,881.337585 1459.783569,918.432678 
	C1463.192627,923.355774 1465.516846,929.973633 1470.170410,932.825256 
	C1474.784180,935.652527 1481.707520,934.709900 1487.617188,935.426636 
	C1487.946777,935.466492 1488.266724,935.582764 1488.596191,935.625793 
	C1499.232544,937.017456 1509.869507,938.404541 1521.450073,939.915344 
	C1519.011353,936.758545 1517.196533,934.213013 1515.184692,931.834045 
	C1481.518555,892.022095 1448.115845,851.981567 1414.001831,812.556763 
	C1400.185425,796.589478 1385.009399,781.770935 1370.050903,766.831482 
	C1362.621216,759.411194 1353.544067,754.509216 1342.651978,753.884827 
	C1341.845215,753.838501 1341.079224,753.082886 1339.666992,752.316711 
	C1347.756226,751.352417 1354.980957,752.065796 1361.155151,755.991272 
	C1368.972290,760.961365 1377.300659,765.806274 1383.544556,772.455444 
	C1411.358643,802.075256 1439.026245,831.867188 1465.734253,862.480164 
	C1487.403564,887.317566 1507.620361,913.421387 1528.527588,938.925537 
	C1529.760742,940.429749 1531.252075,942.473694 1532.889160,942.763184 
	C1539.498901,943.932190 1546.213013,944.511536 1554.167480,945.461243 
	C1552.376099,942.987488 1551.514648,941.641602 1550.500854,940.422424 
	C1541.873169,930.048584 1533.550293,919.397461 1524.512573,909.392456 
	C1487.776123,868.724243 1451.094482,827.999023 1413.769775,787.874084 
	C1402.829468,776.112976 1390.454224,765.439697 1377.614014,755.756348 
	C1362.232910,744.156616 1345.085449,743.534058 1328.532715,753.820618 
	C1321.101929,758.438538 1313.949463,763.943420 1307.863892,770.205444 
	C1289.525635,789.075623 1271.653809,808.405823 1253.866577,827.800964 
	C1248.718384,833.414551 1244.007202,839.567078 1240.013916,846.039124 
	C1238.213257,848.957458 1237.559814,853.506287 1238.303101,856.894958 
	C1240.357056,866.260010 1244.903076,874.585144 1251.321167,881.855591 
	C1254.415283,885.360535 1257.316895,885.177246 1259.966431,881.772949 
	C1263.123413,877.716858 1266.300049,873.595093 1268.809204,869.131348 
	C1276.062500,856.228027 1282.372314,842.755798 1290.206055,830.228210 
	C1298.379761,817.156982 1307.896240,804.925537 1317.326172,791.826782 
M594.033997,865.508972 
	C574.052979,889.658447 554.071960,913.807861 534.090942,937.957336 
	C547.953430,937.349915 560.624512,935.118652 573.380554,934.404419 
	C581.685730,933.939392 586.569946,930.830261 591.204102,923.892761 
	C612.559937,891.922302 634.487000,860.330383 656.443054,828.765381 
	C665.465820,815.793762 674.398804,802.657654 684.582886,790.620300 
	C699.177979,773.369263 714.873657,772.965027 731.789734,787.982117 
	C732.412537,788.535095 733.098083,789.045776 733.610413,789.690491 
	C741.362610,799.444641 750.014832,808.636047 756.614990,819.118591 
	C767.418701,836.277039 776.826416,854.311462 786.963623,871.895325 
	C788.936829,875.318054 791.318115,878.576843 793.932739,881.539307 
	C796.843872,884.837769 800.370667,885.294312 803.036682,881.239624 
	C806.580322,875.850098 809.826477,870.257263 813.034363,864.656677 
	C818.222717,855.598267 817.104370,847.394226 810.013794,839.588501 
	C791.088257,818.754089 772.702637,797.418030 753.408081,776.935364 
	C745.375183,768.407715 736.217590,760.571533 726.441467,754.137817 
	C710.659241,743.751465 693.988281,744.059448 678.241638,754.921448 
	C671.417480,759.628723 664.857788,764.886963 658.878174,770.624634 
	C607.111755,820.295410 559.893921,874.161316 513.555420,928.827332 
	C509.240570,933.917603 505.011597,939.080627 500.062561,945.027161 
	C507.522278,944.128418 513.837036,943.616943 520.038330,942.484680 
	C522.194824,942.090942 524.583801,940.584595 525.998657,938.870117 
	C550.592896,909.069214 574.492859,878.675049 599.708008,849.413086 
	C621.881104,823.681458 645.140320,798.850891 668.675720,774.348450 
	C676.139221,766.578247 685.689880,760.591064 694.934814,754.830017 
	C701.314453,750.854553 708.963440,750.236328 716.598022,752.685242 
	C699.435425,752.375183 687.350037,761.935303 676.743225,773.590576 
	C649.161011,803.899414 621.893738,834.494812 594.033997,865.508972 
M1890.072510,1959.246704 
	C1896.241089,1976.835327 1907.830566,1985.031250 1926.546631,1985.036743 
	C1934.534302,1985.039062 1942.522583,1985.107178 1950.509399,1985.021362 
	C1969.929688,1984.812744 1985.078125,1969.326294 1985.037354,1949.804932 
	C1984.997070,1930.623657 1969.811157,1915.213135 1950.618530,1914.983154 
	C1941.966553,1914.879395 1933.312134,1914.935547 1924.659058,1914.968384 
	C1900.947144,1915.058350 1884.809937,1935.261963 1890.072510,1959.246704 
M724.934082,795.606934 
	C728.932678,801.327637 733.351746,806.803223 736.855408,812.812500 
	C750.326538,835.917053 763.488708,859.201660 776.802002,882.398560 
	C780.437866,888.733582 785.041382,890.224670 791.440491,887.768616 
	C788.143127,883.031677 784.449707,878.357056 781.433411,873.280151 
	C770.153809,854.294495 759.593506,834.860046 747.735413,816.248840 
	C742.186218,807.539551 734.534058,800.093140 727.337646,792.548828 
	C724.514709,789.589539 720.330627,787.928467 716.766479,785.676147 
	C716.577637,785.970215 716.388794,786.264221 716.199890,786.558289 
	C718.957031,789.393921 721.714172,792.229553 724.934082,795.606934 
M1262.200684,886.599365 
	C1261.380371,887.151917 1260.559937,887.704407 1259.355591,888.515503 
	C1271.551025,891.159607 1273.222290,890.437988 1278.954102,880.454712 
	C1279.699097,879.157288 1280.404419,877.836914 1281.121460,876.523621 
	C1291.476929,857.559082 1301.518921,838.414124 1312.297852,819.693481 
	C1319.276489,807.573059 1326.899170,795.745605 1337.626465,786.209534 
	C1336.284912,786.202637 1335.276855,786.549561 1334.369995,787.072327 
	C1322.208374,794.082886 1313.127563,804.321716 1306.043945,816.089661 
	C1294.904419,834.595703 1284.689819,853.656494 1273.716797,872.266235 
	C1270.740723,877.313354 1266.446899,881.583679 1262.200684,886.599365 
z"/>
<path fill="#FCFCFB" opacity="1.000000" stroke="none" 
	d="
M962.429749,1169.544678 
	C953.547058,1189.731934 943.301514,1208.731201 931.190247,1226.736450 
	C902.903809,1268.788452 863.047668,1293.159668 813.700928,1301.481445 
	C762.733521,1310.076660 712.107422,1307.107910 662.587097,1291.603149 
	C616.423279,1277.149414 584.428040,1247.021851 565.009827,1202.827759 
	C551.412659,1171.881836 543.194458,1139.384399 534.834961,1106.820923 
	C530.926514,1091.596069 525.487610,1076.676147 519.615601,1062.071045 
	C514.879639,1050.291748 505.657501,1041.794678 494.331848,1036.101318 
	C488.536133,1033.187866 485.906464,1029.097900 485.818939,1022.772766 
	C485.586609,1005.973633 485.221222,989.175964 484.813446,972.380005 
	C484.701752,967.779358 486.599976,965.572693 491.272980,964.827393 
	C519.212708,960.371582 547.033203,955.077454 575.055969,951.254395 
	C617.830017,945.418823 660.870911,942.781128 704.071899,943.267517 
	C744.928589,943.727539 785.496399,947.224426 825.908447,953.418518 
	C869.972778,960.172424 912.453186,973.210144 955.396423,984.468323 
	C983.874939,991.934387 1012.676514,996.855957 1042.294556,994.856934 
	C1066.665649,993.212097 1090.309204,987.621704 1113.874756,981.621399 
	C1146.585693,973.292480 1179.137329,964.262817 1212.045166,956.803711 
	C1242.765747,949.840393 1274.143799,946.889893 1305.585938,944.770325 
	C1347.716797,941.930298 1389.848511,942.179871 1431.812256,946.240051 
	C1466.415161,949.587952 1500.835327,954.852844 1535.315552,959.424866 
	C1544.716187,960.671265 1554.031372,962.549866 1563.406616,964.004272 
	C1567.394897,964.622986 1569.515747,966.165649 1569.310791,970.742737 
	C1568.455811,989.834961 1568.061646,1008.949463 1567.014526,1028.029175 
	C1566.870605,1030.652588 1564.611938,1034.282593 1562.308350,1035.485840 
	C1545.185059,1044.430176 1536.246216,1059.462769 1531.249512,1077.100220 
	C1524.767700,1099.980469 1519.241699,1123.129639 1512.993408,1146.078613 
	C1506.648071,1169.384277 1498.467896,1191.986206 1487.786011,1213.753906 
	C1468.703979,1252.639160 1438.095947,1277.757568 1397.338013,1290.851685 
	C1344.228149,1307.913818 1290.065918,1310.996582 1235.593628,1299.411377 
	C1182.194946,1288.054443 1143.074951,1256.649780 1115.892456,1209.642456 
	C1098.727661,1179.958984 1086.248413,1148.308716 1075.089478,1116.038330 
	C1073.138550,1110.396851 1070.849365,1104.849731 1068.365479,1099.419678 
	C1062.074341,1085.666626 1050.973022,1078.022217 1036.234497,1076.419678 
	C1029.242798,1075.659302 1021.898804,1076.259521 1014.937073,1077.496582 
	C1000.616394,1080.041504 992.065002,1089.580933 987.195862,1102.791138 
	C979.490662,1123.695557 971.846741,1144.622681 964.163696,1165.535278 
	C963.705444,1166.782715 963.129761,1167.986938 962.429749,1169.544678 
M1148.982178,976.739197 
	C1138.768188,979.700317 1128.530762,982.583252 1118.344116,985.635742 
	C1066.841187,1001.068787 1014.881287,1005.327698 962.279358,991.746521 
	C945.759399,987.481262 929.406799,982.570190 912.959534,978.019714 
	C905.987366,976.090637 898.968811,974.328918 891.971313,972.491272 
	C891.839905,972.973694 891.708496,973.456116 891.577087,973.938538 
	C918.575012,982.185913 945.479248,990.757141 972.594727,998.597778 
	C1005.479919,1008.106628 1038.981689,1010.066833 1072.239014,1001.600098 
	C1098.772583,994.845215 1124.757568,985.935730 1151.747925,978.059937 
	C1155.714966,976.648987 1159.682007,975.238098 1163.649048,973.827148 
	C1163.489624,973.363708 1163.330078,972.900330 1163.170654,972.436890 
	C1158.692749,973.793091 1154.214722,975.149292 1148.982178,976.739197 
M1258.256836,977.649292 
	C1251.357788,978.771057 1244.436035,979.770386 1237.563599,981.036316 
	C1211.316772,985.871094 1185.634766,992.555176 1161.427490,1004.163879 
	C1128.645630,1019.884583 1111.051514,1045.391357 1110.413818,1082.163574 
	C1109.745972,1120.660156 1117.982300,1157.246582 1134.544067,1191.830811 
	C1156.752441,1238.206177 1192.795288,1268.168701 1243.189087,1279.578613 
	C1288.474609,1289.831909 1333.742676,1288.861816 1378.619751,1276.568848 
	C1420.491699,1265.099121 1451.769653,1240.561035 1469.968262,1200.746094 
	C1491.481812,1153.678589 1498.769043,1104.003174 1494.591553,1052.683228 
	C1493.741455,1042.240356 1490.764526,1031.652466 1486.953979,1021.835632 
	C1479.356201,1002.262146 1462.840088,991.938721 1443.839600,986.172913 
	C1428.786133,981.604736 1413.213013,978.114563 1397.618042,976.084900 
	C1351.454712,970.076843 1305.242310,971.548523 1258.256836,977.649292 
M562.988159,1088.375610 
	C563.670532,1096.332886 564.064453,1104.327393 565.087463,1112.240601 
	C568.659729,1139.871948 574.342224,1166.997314 585.002197,1192.899902 
	C601.239258,1232.354492 628.657715,1260.109619 669.655457,1273.376221 
	C718.874023,1289.303223 768.876587,1290.569702 818.972717,1278.775513 
	C866.975464,1267.474121 901.341919,1238.459961 923.190674,1194.371826 
	C940.446533,1159.551758 948.533875,1122.607422 948.004517,1083.903931 
	C947.551025,1050.748169 933.567688,1025.034424 904.113281,1008.356445 
	C887.446533,998.919128 869.618225,992.579163 851.179016,988.085205 
	C790.616638,973.325195 729.217285,969.301941 667.199585,975.174255 
	C647.447449,977.044556 628.007996,980.736206 609.359253,987.898743 
	C585.838562,996.932373 570.945862,1013.193665 565.574951,1038.194702 
	C562.065613,1054.530640 562.513672,1070.933594 562.988159,1088.375610 
M1508.429688,996.815491 
	C1506.477417,998.068848 1504.447021,999.217468 1502.590698,1000.599792 
	C1499.643311,1002.794739 1500.159790,1004.927002 1502.894043,1006.979736 
	C1514.732178,1015.867249 1539.439331,1013.317322 1550.218506,1001.582581 
	C1536.717407,996.387573 1523.874756,989.465332 1508.429688,996.815491 
M526.865723,1011.690369 
	C536.520447,1014.435364 545.609253,1014.013306 553.667542,1007.148743 
	C556.910889,1004.385803 556.740295,1002.064148 553.414062,999.512329 
	C541.688843,990.517334 519.491760,992.073242 507.548065,1003.865173 
	C514.101685,1006.525757 520.106506,1008.963562 526.865723,1011.690369 
z"/>
<path fill="#FBFBFA" opacity="1.000000" stroke="none" 
	d="
M1317.075928,792.076843 
	C1307.896240,804.925537 1298.379761,817.156982 1290.206055,830.228210 
	C1282.372314,842.755798 1276.062500,856.228027 1268.809204,869.131348 
	C1266.300049,873.595093 1263.123413,877.716858 1259.966431,881.772949 
	C1257.316895,885.177246 1254.415283,885.360535 1251.321167,881.855591 
	C1244.903076,874.585144 1240.357056,866.260010 1238.303101,856.894958 
	C1237.559814,853.506287 1238.213257,848.957458 1240.013916,846.039124 
	C1244.007202,839.567078 1248.718384,833.414551 1253.866577,827.800964 
	C1271.653809,808.405823 1289.525635,789.075623 1307.863892,770.205444 
	C1313.949463,763.943420 1321.101929,758.438538 1328.532715,753.820618 
	C1345.085449,743.534058 1362.232910,744.156616 1377.614014,755.756348 
	C1390.454224,765.439697 1402.829468,776.112976 1413.769775,787.874084 
	C1451.094482,827.999023 1487.776123,868.724243 1524.512573,909.392456 
	C1533.550293,919.397461 1541.873169,930.048584 1550.500854,940.422424 
	C1551.514648,941.641602 1552.376099,942.987488 1554.167480,945.461243 
	C1546.213013,944.511536 1539.498901,943.932190 1532.889160,942.763184 
	C1531.252075,942.473694 1529.760742,940.429749 1528.527588,938.925537 
	C1507.620361,913.421387 1487.403564,887.317566 1465.734253,862.480164 
	C1439.026245,831.867188 1411.358643,802.075256 1383.544556,772.455444 
	C1377.300659,765.806274 1368.972290,760.961365 1361.155151,755.991272 
	C1354.980957,752.065796 1347.756226,751.352417 1339.666992,752.316711 
	C1341.079224,753.082886 1341.845215,753.838501 1342.651978,753.884827 
	C1353.544067,754.509216 1362.621216,759.411194 1370.050903,766.831482 
	C1385.009399,781.770935 1400.185425,796.589478 1414.001831,812.556763 
	C1448.115845,851.981567 1481.518555,892.022095 1515.184692,931.834045 
	C1517.196533,934.213013 1519.011353,936.758545 1521.450073,939.915344 
	C1509.869507,938.404541 1499.232544,937.017456 1488.596191,935.625793 
	C1488.266724,935.582764 1487.946777,935.466492 1487.617188,935.426636 
	C1481.707520,934.709900 1474.784180,935.652527 1470.170410,932.825256 
	C1465.516846,929.973633 1463.192627,923.355774 1459.783569,918.432678 
	C1434.096436,881.337585 1408.469849,844.200195 1382.622681,807.216980 
	C1378.157104,800.827637 1373.088379,794.767334 1367.685913,789.143372 
	C1353.857788,774.748535 1337.762695,774.168823 1322.470215,787.087891 
	C1320.691040,788.591003 1319.037842,790.243530 1317.075928,792.076843 
z"/>
<path fill="#FBFBFA" opacity="1.000000" stroke="none" 
	d="
M594.267334,865.242432 
	C621.893738,834.494812 649.161011,803.899414 676.743225,773.590576 
	C687.350037,761.935303 699.435425,752.375183 716.598022,752.685242 
	C708.963440,750.236328 701.314453,750.854553 694.934814,754.830017 
	C685.689880,760.591064 676.139221,766.578247 668.675720,774.348450 
	C645.140320,798.850891 621.881104,823.681458 599.708008,849.413086 
	C574.492859,878.675049 550.592896,909.069214 525.998657,938.870117 
	C524.583801,940.584595 522.194824,942.090942 520.038330,942.484680 
	C513.837036,943.616943 507.522278,944.128418 500.062561,945.027161 
	C505.011597,939.080627 509.240570,933.917603 513.555420,928.827332 
	C559.893921,874.161316 607.111755,820.295410 658.878174,770.624634 
	C664.857788,764.886963 671.417480,759.628723 678.241638,754.921448 
	C693.988281,744.059448 710.659241,743.751465 726.441467,754.137817 
	C736.217590,760.571533 745.375183,768.407715 753.408081,776.935364 
	C772.702637,797.418030 791.088257,818.754089 810.013794,839.588501 
	C817.104370,847.394226 818.222717,855.598267 813.034363,864.656677 
	C809.826477,870.257263 806.580322,875.850098 803.036682,881.239624 
	C800.370667,885.294312 796.843872,884.837769 793.932739,881.539307 
	C791.318115,878.576843 788.936829,875.318054 786.963623,871.895325 
	C776.826416,854.311462 767.418701,836.277039 756.614990,819.118591 
	C750.014832,808.636047 741.362610,799.444641 733.610413,789.690491 
	C733.098083,789.045776 732.412537,788.535095 731.789734,787.982117 
	C714.873657,772.965027 699.177979,773.369263 684.582886,790.620300 
	C674.398804,802.657654 665.465820,815.793762 656.443054,828.765381 
	C634.487000,860.330383 612.559937,891.922302 591.204102,923.892761 
	C586.569946,930.830261 581.685730,933.939392 573.380554,934.404419 
	C560.624512,935.118652 547.953430,937.349915 534.090942,937.957336 
	C554.071960,913.807861 574.052979,889.658447 594.267334,865.242432 
z"/>
<path fill="#767676" opacity="1.000000" stroke="none" 
	d="
M1890.001221,1958.833984 
	C1884.809937,1935.261963 1900.947144,1915.058350 1924.659058,1914.968384 
	C1933.312134,1914.935547 1941.966553,1914.879395 1950.618530,1914.983154 
	C1969.811157,1915.213135 1984.997070,1930.623657 1985.037354,1949.804932 
	C1985.078125,1969.326294 1969.929688,1984.812744 1950.509399,1985.021362 
	C1942.522583,1985.107178 1934.534302,1985.039062 1926.546631,1985.036743 
	C1907.830566,1985.031250 1896.241089,1976.835327 1890.001221,1958.833984 
M1952.485840,1941.918701 
	C1950.777710,1941.918701 1949.069458,1941.918701 1947.322021,1941.918701 
	C1947.322021,1950.458008 1947.322021,1958.497437 1947.322021,1966.626465 
	C1949.379761,1966.626465 1951.118408,1966.626465 1953.146118,1966.626465 
	C1953.146118,1958.438599 1953.146118,1950.543335 1952.485840,1941.918701 
M1952.888794,1937.510986 
	C1954.996094,1935.023438 1955.054565,1932.332642 1952.137329,1930.918579 
	C1950.864014,1930.301514 1948.333496,1931.479492 1946.835693,1932.511841 
	C1946.226562,1932.931641 1946.316406,1935.858521 1947.017212,1936.368652 
	C1948.391724,1937.369263 1950.417358,1937.475220 1952.888794,1937.510986 
z"/>
<path fill="#F4F4F4" opacity="1.000000" stroke="none" 
	d="
M724.702698,795.336060 
	C721.714172,792.229553 718.957031,789.393921 716.199890,786.558289 
	C716.388794,786.264221 716.577637,785.970215 716.766479,785.676147 
	C720.330627,787.928467 724.514709,789.589539 727.337646,792.548828 
	C734.534058,800.093140 742.186218,807.539551 747.735413,816.248840 
	C759.593506,834.860046 770.153809,854.294495 781.433411,873.280151 
	C784.449707,878.357056 788.143127,883.031677 791.440491,887.768616 
	C785.041382,890.224670 780.437866,888.733582 776.802002,882.398560 
	C763.488708,859.201660 750.326538,835.917053 736.855408,812.812500 
	C733.351746,806.803223 728.932678,801.327637 724.702698,795.336060 
z"/>
<path fill="#F4F4F4" opacity="1.000000" stroke="none" 
	d="
M1262.479248,886.404907 
	C1266.446899,881.583679 1270.740723,877.313354 1273.716797,872.266235 
	C1284.689819,853.656494 1294.904419,834.595703 1306.043945,816.089661 
	C1313.127563,804.321716 1322.208374,794.082886 1334.369995,787.072327 
	C1335.276855,786.549561 1336.284912,786.202637 1337.626465,786.209534 
	C1326.899170,795.745605 1319.276489,807.573059 1312.297852,819.693481 
	C1301.518921,838.414124 1291.476929,857.559082 1281.121460,876.523621 
	C1280.404419,877.836914 1279.699097,879.157288 1278.954102,880.454712 
	C1273.222290,890.437988 1271.551025,891.159607 1259.355591,888.515503 
	C1260.559937,887.704407 1261.380371,887.151917 1262.479248,886.404907 
z"/>
<path fill="#EDEDEC" opacity="1.000000" stroke="none" 
	d="
M577.968933,942.931274 
	C548.041016,948.057617 518.113159,953.183960 488.893616,958.188965 
	C491.089844,953.061829 495.321533,949.822449 502.858582,949.130615 
	C522.369751,947.339722 541.769531,944.359070 561.235718,942.037415 
	C566.506958,941.408691 571.856323,941.434570 577.590454,941.454285 
	C577.997070,942.142822 577.983032,942.537048 577.968933,942.931274 
z"/>
<path fill="#EDECEB" opacity="1.000000" stroke="none" 
	d="
M1477.990967,941.143982 
	C1480.859253,941.441711 1483.727539,941.739441 1487.041382,942.583008 
	C1487.989380,943.087219 1488.491821,943.045593 1488.994263,943.003906 
	C1501.041504,944.100281 1513.100586,945.081299 1525.132324,946.327698 
	C1535.859619,947.438843 1546.663452,948.309509 1557.207153,950.417847 
	C1560.742554,951.124817 1563.581055,955.315918 1566.738159,957.914429 
	C1566.444336,958.406067 1566.150513,958.897705 1565.856689,959.389343 
	C1558.704346,957.812073 1551.595459,955.991028 1544.391235,954.703857 
	C1523.820190,951.028381 1503.209473,947.574829 1482.617798,944.014282 
	C1481.336426,943.792786 1480.084106,943.402466 1478.397461,942.709106 
	C1477.981445,941.932922 1477.986206,941.538452 1477.990967,941.143982 
z"/>
<path fill="#A7A7A7" opacity="1.000000" stroke="none" 
	d="
M578.423706,943.010254 
	C577.983032,942.537048 577.997070,942.142822 578.010010,941.451538 
	C589.900208,940.302979 601.791565,939.451477 613.682922,938.599915 
	C613.695312,938.785095 613.707703,938.970276 613.720032,939.155396 
	C602.106201,940.466675 590.492310,941.777893 578.423706,943.010254 
z"/>
<path fill="#A7A7A7" opacity="1.000000" stroke="none" 
	d="
M1477.624634,940.981140 
	C1477.986206,941.538452 1477.981445,941.932922 1478.010986,942.621338 
	C1471.198120,942.251587 1464.350952,941.587891 1457.503662,940.924194 
	C1457.529541,940.488892 1457.555420,940.053650 1457.581299,939.618408 
	C1464.140381,940.018372 1470.699341,940.418335 1477.624634,940.981140 
z"/>
<path fill="#A7A7A7" opacity="1.000000" stroke="none" 
	d="
M1488.818359,942.892578 
	C1488.491821,943.045593 1487.989380,943.087219 1487.322754,942.928162 
	C1487.653198,942.745361 1488.147827,942.763306 1488.818359,942.892578 
z"/>
<path fill="#030303" opacity="1.000000" stroke="none" 
	d="
M1258.696167,977.570923 
	C1305.242310,971.548523 1351.454712,970.076843 1397.618042,976.084900 
	C1413.213013,978.114563 1428.786133,981.604736 1443.839600,986.172913 
	C1462.840088,991.938721 1479.356201,1002.262146 1486.953979,1021.835632 
	C1490.764526,1031.652466 1493.741455,1042.240356 1494.591553,1052.683228 
	C1498.769043,1104.003174 1491.481812,1153.678589 1469.968262,1200.746094 
	C1451.769653,1240.561035 1420.491699,1265.099121 1378.619751,1276.568848 
	C1333.742676,1288.861816 1288.474609,1289.831909 1243.189087,1279.578613 
	C1192.795288,1268.168701 1156.752441,1238.206177 1134.544067,1191.830811 
	C1117.982300,1157.246582 1109.745972,1120.660156 1110.413818,1082.163574 
	C1111.051514,1045.391357 1128.645630,1019.884583 1161.427490,1004.163879 
	C1185.634766,992.555176 1211.316772,985.871094 1237.563599,981.036316 
	C1244.436035,979.770386 1251.357788,978.771057 1258.696167,977.570923 
M1371.673584,1272.003174 
	C1372.958862,1271.656860 1374.245972,1271.317261 1375.529175,1270.963379 
	C1422.333252,1258.054199 1454.267456,1229.041626 1471.429565,1183.454590 
	C1483.726685,1150.790283 1489.306763,1117.020386 1489.846558,1082.307739 
	C1490.105957,1065.620483 1489.257812,1048.989502 1484.016113,1032.925415 
	C1483.319946,1030.791748 1482.274292,1028.772339 1481.390503,1026.699951 
	C1482.238525,1034.292358 1484.244873,1041.474731 1484.911865,1048.779175 
	C1489.312500,1096.974609 1481.317749,1143.397949 1462.974854,1187.922485 
	C1450.172485,1218.998413 1429.003784,1243.010132 1398.223022,1257.702515 
	C1380.075195,1266.364868 1360.920776,1271.895996 1341.091919,1274.952271 
	C1328.902832,1276.830933 1316.619141,1278.096436 1308.081421,1279.171021 
	C1326.870972,1280.418091 1349.011719,1277.670532 1371.673584,1272.003174 
M1480.182983,1024.429565 
	C1480.226685,1024.383545 1480.270264,1024.337646 1480.313843,1024.291626 
	C1480.269775,1024.421753 1480.225586,1024.552002 1480.182983,1024.429565 
z"/>
<path fill="#030303" opacity="1.000000" stroke="none" 
	d="
M562.963806,1087.889771 
	C562.513672,1070.933594 562.065613,1054.530640 565.574951,1038.194702 
	C570.945862,1013.193665 585.838562,996.932373 609.359253,987.898743 
	C628.007996,980.736206 647.447449,977.044556 667.199585,975.174255 
	C729.217285,969.301941 790.616638,973.325195 851.179016,988.085205 
	C869.618225,992.579163 887.446533,998.919128 904.113281,1008.356445 
	C933.567688,1025.034424 947.551025,1050.748169 948.004517,1083.903931 
	C948.533875,1122.607422 940.446533,1159.551758 923.190674,1194.371826 
	C901.341919,1238.459961 866.975464,1267.474121 818.972717,1278.775513 
	C768.876587,1290.569702 718.874023,1289.303223 669.655457,1273.376221 
	C628.657715,1260.109619 601.239258,1232.354492 585.002197,1192.899902 
	C574.342224,1166.997314 568.659729,1139.871948 565.087463,1112.240601 
	C564.064453,1104.327393 563.670532,1096.332886 562.963806,1087.889771 
M635.646301,1242.905640 
	C613.060791,1225.002197 599.341736,1201.115967 590.123840,1174.412476 
	C581.236511,1148.666260 575.851746,1122.052490 573.295776,1094.978882 
	C571.227356,1073.070679 570.794495,1051.092896 577.090271,1029.586426 
	C577.215332,1029.159058 576.804565,1028.574829 576.371338,1027.197632 
	C571.798096,1037.798096 569.769897,1048.004028 569.030029,1058.478760 
	C566.098389,1099.983643 572.722290,1140.210815 586.155640,1179.343262 
	C602.208313,1226.106079 632.567627,1258.408447 681.591736,1270.874512 
	C705.996521,1277.080078 730.664856,1281.455444 756.051025,1278.591675 
	C756.664795,1278.522461 757.343384,1279.028076 757.991760,1279.265625 
	C755.139099,1279.944458 752.546265,1279.381958 749.926941,1279.003296 
	C735.774170,1276.956299 721.506409,1275.517578 707.481323,1272.815430 
	C681.786987,1267.865479 657.304199,1259.604004 635.646301,1242.905640 
z"/>
<path fill="#141414" opacity="1.000000" stroke="none" 
	d="
M1150.985962,977.982605 
	C1124.757568,985.935730 1098.772583,994.845215 1072.239014,1001.600098 
	C1038.981689,1010.066833 1005.479919,1008.106628 972.594727,998.597778 
	C945.479248,990.757141 918.575012,982.185913 891.577087,973.938538 
	C891.708496,973.456116 891.839905,972.973694 891.971313,972.491272 
	C898.968811,974.328918 905.987366,976.090637 912.959534,978.019714 
	C929.406799,982.570190 945.759399,987.481262 962.279358,991.746521 
	C1014.881287,1005.327698 1066.841187,1001.068787 1118.344116,985.635742 
	C1128.530762,982.583252 1138.768188,979.700317 1149.659058,976.800964 
	C1150.552612,977.236023 1150.769287,977.609314 1150.985962,977.982605 
z"/>
<path fill="#141414" opacity="1.000000" stroke="none" 
	d="
M1508.761230,996.634521 
	C1523.874756,989.465332 1536.717407,996.387573 1550.218506,1001.582581 
	C1539.439331,1013.317322 1514.732178,1015.867249 1502.894043,1006.979736 
	C1500.159790,1004.927002 1499.643311,1002.794739 1502.590698,1000.599792 
	C1504.447021,999.217468 1506.477417,998.068848 1508.761230,996.634521 
M1519.455688,1008.136658 
	C1527.749634,1009.560059 1534.737671,1005.891113 1542.695923,1002.788330 
	C1528.744263,997.100708 1518.371582,997.780701 1507.969116,1004.786743 
	C1511.652466,1005.903259 1515.148438,1006.963013 1519.455688,1008.136658 
z"/>
<path fill="#141414" opacity="1.000000" stroke="none" 
	d="
M526.488525,1011.545898 
	C520.106506,1008.963562 514.101685,1006.525757 507.548065,1003.865173 
	C519.491760,992.073242 541.688843,990.517334 553.414062,999.512329 
	C556.740295,1002.064148 556.910889,1004.385803 553.667542,1007.148743 
	C545.609253,1014.013306 536.520447,1014.435364 526.488525,1011.545898 
M532.801941,1008.968506 
	C538.496155,1007.652405 544.190430,1006.336243 549.884644,1005.020081 
	C537.612305,996.734985 524.593323,996.629150 515.861816,1003.497070 
	C518.551331,1004.528015 521.146240,1005.632812 523.814758,1006.514771 
	C526.493958,1007.400146 529.246521,1008.063354 532.801941,1008.968506 
z"/>
<path fill="#767676" opacity="1.000000" stroke="none" 
	d="
M1151.366943,978.021240 
	C1150.769287,977.609314 1150.552612,977.236023 1150.036377,976.684082 
	C1154.214722,975.149292 1158.692749,973.793091 1163.170654,972.436890 
	C1163.330078,972.900330 1163.489624,973.363708 1163.649048,973.827148 
	C1159.682007,975.238098 1155.714966,976.648987 1151.366943,978.021240 
z"/>
<path fill="#0B0B0B" opacity="1.000000" stroke="none" 
	d="
M1952.815918,1942.283447 
	C1953.146118,1950.543335 1953.146118,1958.438599 1953.146118,1966.626465 
	C1951.118408,1966.626465 1949.379761,1966.626465 1947.322021,1966.626465 
	C1947.322021,1958.497437 1947.322021,1950.458008 1947.322021,1941.918701 
	C1949.069458,1941.918701 1950.777710,1941.918701 1952.815918,1942.283447 
z"/>
<path fill="#0B0B0B" opacity="1.000000" stroke="none" 
	d="
M1952.531250,1937.731201 
	C1950.417358,1937.475220 1948.391724,1937.369263 1947.017212,1936.368652 
	C1946.316406,1935.858521 1946.226562,1932.931641 1946.835693,1932.511841 
	C1948.333496,1931.479492 1950.864014,1930.301514 1952.137329,1930.918579 
	C1955.054565,1932.332642 1954.996094,1935.023438 1952.531250,1937.731201 
z"/>
<path fill="#EDEDEC" opacity="1.000000" stroke="none" 
	d="
M1371.272583,1272.081665 
	C1349.011719,1277.670532 1326.870972,1280.418091 1308.081421,1279.171021 
	C1316.619141,1278.096436 1328.902832,1276.830933 1341.091919,1274.952271 
	C1360.920776,1271.895996 1380.075195,1266.364868 1398.223022,1257.702515 
	C1429.003784,1243.010132 1450.172485,1218.998413 1462.974854,1187.922485 
	C1481.317749,1143.397949 1489.312500,1096.974609 1484.911865,1048.779175 
	C1484.244873,1041.474731 1482.238525,1034.292358 1481.390503,1026.699951 
	C1482.274292,1028.772339 1483.319946,1030.791748 1484.016113,1032.925415 
	C1489.257812,1048.989502 1490.105957,1065.620483 1489.846558,1082.307739 
	C1489.306763,1117.020386 1483.726685,1150.790283 1471.429565,1183.454590 
	C1454.267456,1229.041626 1422.333252,1258.054199 1375.529175,1270.963379 
	C1374.245972,1271.317261 1372.958862,1271.656860 1371.272583,1272.081665 
z"/>
<path fill="#EDEDEC" opacity="1.000000" stroke="none" 
	d="
M1480.182129,1024.555908 
	C1480.225586,1024.552002 1480.269775,1024.421753 1480.313965,1024.291626 
	C1480.270264,1024.337646 1480.226685,1024.383545 1480.182129,1024.555908 
z"/>
<path fill="#EDECEB" opacity="1.000000" stroke="none" 
	d="
M635.930542,1243.122559 
	C657.304199,1259.604004 681.786987,1267.865479 707.481323,1272.815430 
	C721.506409,1275.517578 735.774170,1276.956299 749.926941,1279.003296 
	C752.546265,1279.381958 755.139099,1279.944458 757.991760,1279.265625 
	C757.343384,1279.028076 756.664795,1278.522461 756.051025,1278.591675 
	C730.664856,1281.455444 705.996521,1277.080078 681.591736,1270.874512 
	C632.567627,1258.408447 602.208313,1226.106079 586.155640,1179.343262 
	C572.722290,1140.210815 566.098389,1099.983643 569.030029,1058.478760 
	C569.769897,1048.004028 571.798096,1037.798096 576.371338,1027.197632 
	C576.804565,1028.574829 577.215332,1029.159058 577.090271,1029.586426 
	C570.794495,1051.092896 571.227356,1073.070679 573.295776,1094.978882 
	C575.851746,1122.052490 581.236511,1148.666260 590.123840,1174.412476 
	C599.341736,1201.115967 613.060791,1225.002197 635.930542,1243.122559 
z"/>
<path fill="#F4F4F4" opacity="1.000000" stroke="none" 
	d="
M1519.050049,1008.079712 
	C1515.148438,1006.963013 1511.652466,1005.903259 1507.969116,1004.786743 
	C1518.371582,997.780701 1528.744263,997.100708 1542.695923,1002.788330 
	C1534.737671,1005.891113 1527.749634,1009.560059 1519.050049,1008.079712 
z"/>
<path fill="#F4F4F4" opacity="1.000000" stroke="none" 
	d="
M532.384399,1008.896240 
	C529.246521,1008.063354 526.493958,1007.400146 523.814758,1006.514771 
	C521.146240,1005.632812 518.551331,1004.528015 515.861816,1003.497070 
	C524.593323,996.629150 537.612305,996.734985 549.884644,1005.020081 
	C544.190430,1006.336243 538.496155,1007.652405 532.384399,1008.896240 
z"/>
</svg>